<mxfile host="app.diagrams.net" agent="Mozilla/5.0 (X11; Ubuntu; Linux x86_64; rv:131.0) Gecko/20100101 Firefox/131.0" version="24.8.3">
  <diagram name="Page-1" id="mx3O3tW7TyzY6Fc0znIM">
    <mxGraphModel dx="2004" dy="1125" grid="1" gridSize="10" guides="1" tooltips="1" connect="1" arrows="1" fold="1" page="1" pageScale="1" pageWidth="850" pageHeight="1100" math="0" shadow="0">
      <root>
        <mxCell id="0" />
        <mxCell id="1" parent="0" />
        <mxCell id="YQIZiHNNDy1zy7xaOCHf-2" value="&lt;div style=&quot;font-size: 13px;&quot; align=&quot;center&quot;&gt;&lt;font style=&quot;font-size: 15px;&quot;&gt;IP Header&lt;/font&gt;&lt;br&gt;&lt;/div&gt;" style="rounded=0;whiteSpace=wrap;html=1;" vertex="1" parent="1">
          <mxGeometry x="80" y="760" width="90" height="80" as="geometry" />
        </mxCell>
        <mxCell id="YQIZiHNNDy1zy7xaOCHf-3" value="&lt;font style=&quot;font-size: 15px;&quot;&gt;Payload&lt;/font&gt;" style="rounded=0;whiteSpace=wrap;html=1;" vertex="1" parent="1">
          <mxGeometry x="170" y="760" width="150" height="80" as="geometry" />
        </mxCell>
        <mxCell id="YQIZiHNNDy1zy7xaOCHf-4" value="" style="rounded=0;whiteSpace=wrap;html=1;fillColor=#000000;" vertex="1" parent="1">
          <mxGeometry x="40" y="760" width="40" height="80" as="geometry" />
        </mxCell>
        <mxCell id="YQIZiHNNDy1zy7xaOCHf-5" value="" style="endArrow=none;dashed=1;html=1;dashPattern=1 3;strokeWidth=2;rounded=0;" edge="1" parent="1">
          <mxGeometry width="50" height="50" relative="1" as="geometry">
            <mxPoint x="320" y="800" as="sourcePoint" />
            <mxPoint x="440" y="800" as="targetPoint" />
          </mxGeometry>
        </mxCell>
        <mxCell id="YQIZiHNNDy1zy7xaOCHf-6" value="&lt;div style=&quot;font-size: 13px;&quot; align=&quot;center&quot;&gt;&lt;font style=&quot;font-size: 15px;&quot;&gt;IP Header&lt;/font&gt;&lt;br&gt;&lt;/div&gt;" style="rounded=0;whiteSpace=wrap;html=1;" vertex="1" parent="1">
          <mxGeometry x="440" y="760" width="90" height="80" as="geometry" />
        </mxCell>
        <mxCell id="YQIZiHNNDy1zy7xaOCHf-7" value="&lt;font style=&quot;font-size: 15px;&quot;&gt;Payload&lt;/font&gt;" style="rounded=0;whiteSpace=wrap;html=1;" vertex="1" parent="1">
          <mxGeometry x="530" y="760" width="150" height="80" as="geometry" />
        </mxCell>
        <mxCell id="YQIZiHNNDy1zy7xaOCHf-9" value="&lt;font style=&quot;font-size: 15px;&quot;&gt;Network&lt;/font&gt;" style="text;html=1;align=center;verticalAlign=middle;whiteSpace=wrap;rounded=0;" vertex="1" parent="1">
          <mxGeometry x="730" y="785" width="60" height="30" as="geometry" />
        </mxCell>
        <mxCell id="YQIZiHNNDy1zy7xaOCHf-10" value="" style="rounded=0;whiteSpace=wrap;html=1;fillColor=#000000;" vertex="1" parent="1">
          <mxGeometry x="680" y="760" width="40" height="80" as="geometry" />
        </mxCell>
        <mxCell id="YQIZiHNNDy1zy7xaOCHf-11" value="&lt;div&gt;Chunk&lt;/div&gt;&lt;div&gt;Data&lt;br&gt;&lt;/div&gt;" style="rounded=0;whiteSpace=wrap;html=1;strokeColor=#FF3333;" vertex="1" parent="1">
          <mxGeometry x="170" y="600" width="80" height="80" as="geometry" />
        </mxCell>
        <mxCell id="YQIZiHNNDy1zy7xaOCHf-12" value="&lt;div&gt;Transport&lt;/div&gt;&lt;div&gt;Header&lt;br&gt;&lt;/div&gt;" style="rounded=0;whiteSpace=wrap;html=1;" vertex="1" parent="1">
          <mxGeometry x="80" y="600" width="90" height="80" as="geometry" />
        </mxCell>
        <mxCell id="YQIZiHNNDy1zy7xaOCHf-14" value="" style="rounded=0;whiteSpace=wrap;html=1;fillColor=#000000;" vertex="1" parent="1">
          <mxGeometry x="40" y="600" width="40" height="80" as="geometry" />
        </mxCell>
        <mxCell id="YQIZiHNNDy1zy7xaOCHf-15" value="" style="rounded=0;whiteSpace=wrap;html=1;fillColor=#000000;" vertex="1" parent="1">
          <mxGeometry x="680" y="600" width="40" height="80" as="geometry" />
        </mxCell>
        <mxCell id="YQIZiHNNDy1zy7xaOCHf-16" value="&lt;div&gt;Chunk&lt;/div&gt;&lt;div&gt;control&lt;br&gt;&lt;/div&gt;" style="rounded=0;whiteSpace=wrap;html=1;strokeColor=#FF3333;" vertex="1" parent="1">
          <mxGeometry x="250" y="600" width="70" height="80" as="geometry" />
        </mxCell>
        <mxCell id="YQIZiHNNDy1zy7xaOCHf-17" value="Tag" style="rounded=0;whiteSpace=wrap;html=1;strokeColor=#FF3333;" vertex="1" parent="1">
          <mxGeometry x="320" y="600" width="40" height="80" as="geometry" />
        </mxCell>
        <mxCell id="YQIZiHNNDy1zy7xaOCHf-22" value="&lt;div&gt;Transport&lt;/div&gt;&lt;div&gt;Header&lt;br&gt;&lt;/div&gt;" style="rounded=0;whiteSpace=wrap;html=1;" vertex="1" parent="1">
          <mxGeometry x="400" y="600" width="90" height="80" as="geometry" />
        </mxCell>
        <mxCell id="YQIZiHNNDy1zy7xaOCHf-23" value="&lt;div&gt;Chunk&lt;/div&gt;&lt;div&gt;Data&lt;br&gt;&lt;/div&gt;" style="rounded=0;whiteSpace=wrap;html=1;strokeColor=#FF3333;" vertex="1" parent="1">
          <mxGeometry x="490" y="600" width="80" height="80" as="geometry" />
        </mxCell>
        <mxCell id="YQIZiHNNDy1zy7xaOCHf-24" value="&lt;div&gt;Chunk&lt;/div&gt;&lt;div&gt;control&lt;br&gt;&lt;/div&gt;" style="rounded=0;whiteSpace=wrap;html=1;strokeColor=#FF3333;" vertex="1" parent="1">
          <mxGeometry x="570" y="600" width="70" height="80" as="geometry" />
        </mxCell>
        <mxCell id="YQIZiHNNDy1zy7xaOCHf-25" value="Tag" style="rounded=0;whiteSpace=wrap;html=1;strokeColor=#FF3333;" vertex="1" parent="1">
          <mxGeometry x="640" y="600" width="40" height="80" as="geometry" />
        </mxCell>
        <mxCell id="YQIZiHNNDy1zy7xaOCHf-26" value="&lt;font style=&quot;font-size: 15px;&quot;&gt;Transport&lt;/font&gt;" style="text;html=1;align=center;verticalAlign=middle;resizable=0;points=[];autosize=1;strokeColor=none;fillColor=none;" vertex="1" parent="1">
          <mxGeometry x="712" y="615" width="100" height="40" as="geometry" />
        </mxCell>
        <mxCell id="YQIZiHNNDy1zy7xaOCHf-28" value="" style="endArrow=none;dashed=1;html=1;dashPattern=1 3;strokeWidth=2;rounded=0;" edge="1" parent="1">
          <mxGeometry width="50" height="50" relative="1" as="geometry">
            <mxPoint x="360" y="639.5" as="sourcePoint" />
            <mxPoint x="400" y="639.5" as="targetPoint" />
          </mxGeometry>
        </mxCell>
        <mxCell id="YQIZiHNNDy1zy7xaOCHf-29" value="" style="endArrow=none;html=1;rounded=0;entryX=1;entryY=1;entryDx=0;entryDy=0;" edge="1" parent="1" target="YQIZiHNNDy1zy7xaOCHf-17">
          <mxGeometry width="50" height="50" relative="1" as="geometry">
            <mxPoint x="320" y="760" as="sourcePoint" />
            <mxPoint x="370" y="710" as="targetPoint" />
          </mxGeometry>
        </mxCell>
        <mxCell id="YQIZiHNNDy1zy7xaOCHf-30" value="" style="endArrow=none;html=1;rounded=0;entryX=0;entryY=1;entryDx=0;entryDy=0;" edge="1" parent="1" target="YQIZiHNNDy1zy7xaOCHf-12">
          <mxGeometry width="50" height="50" relative="1" as="geometry">
            <mxPoint x="170" y="760" as="sourcePoint" />
            <mxPoint x="220" y="710" as="targetPoint" />
          </mxGeometry>
        </mxCell>
        <mxCell id="YQIZiHNNDy1zy7xaOCHf-31" value="&lt;font style=&quot;font-size: 15px;&quot;&gt;Network::read()&lt;/font&gt;" style="text;html=1;align=center;verticalAlign=middle;whiteSpace=wrap;rounded=0;" vertex="1" parent="1">
          <mxGeometry x="210" y="720" width="60" height="30" as="geometry" />
        </mxCell>
        <mxCell id="YQIZiHNNDy1zy7xaOCHf-32" value="" style="rounded=0;whiteSpace=wrap;html=1;fillColor=#000000;" vertex="1" parent="1">
          <mxGeometry x="40" y="480" width="40" height="80" as="geometry" />
        </mxCell>
        <mxCell id="YQIZiHNNDy1zy7xaOCHf-34" value="&lt;div&gt;Chunk&lt;/div&gt;&lt;div&gt;Data&lt;br&gt;&lt;/div&gt;" style="rounded=0;whiteSpace=wrap;html=1;strokeColor=#000000;" vertex="1" parent="1">
          <mxGeometry x="80" y="480" width="80" height="80" as="geometry" />
        </mxCell>
        <mxCell id="YQIZiHNNDy1zy7xaOCHf-35" value="&lt;div&gt;Chunk&lt;/div&gt;&lt;div&gt;control&lt;br&gt;&lt;/div&gt;" style="rounded=0;whiteSpace=wrap;html=1;strokeColor=#000000;" vertex="1" parent="1">
          <mxGeometry x="160" y="480" width="70" height="80" as="geometry" />
        </mxCell>
        <mxCell id="YQIZiHNNDy1zy7xaOCHf-36" value="" style="shape=curlyBracket;whiteSpace=wrap;html=1;rounded=1;flipH=1;labelPosition=right;verticalLabelPosition=middle;align=left;verticalAlign=middle;direction=south;" vertex="1" parent="1">
          <mxGeometry x="80" y="460" width="80" height="20" as="geometry" />
        </mxCell>
      </root>
    </mxGraphModel>
  </diagram>
</mxfile>
